<?xml version="1.0" encoding="UTF-8"?>
<!DOCTYPE svg PUBLIC "-//W3C//DTD SVG 1.1//EN" "http://www.w3.org/Graphics/SVG/1.1/DTD/svg11.dtd">
<!-- Creator: CorelDRAW 2020 (64-Bit) -->
<svg xmlns="http://www.w3.org/2000/svg" xml:space="preserve" width="221.855mm" height="114.785mm" version="1.1" style="shape-rendering:geometricPrecision; text-rendering:geometricPrecision; image-rendering:optimizeQuality; fill-rule:evenodd; clip-rule:evenodd"
viewBox="0 0 22184.46 11478"
 xmlns:xlink="http://www.w3.org/1999/xlink"
 xmlns:xodm="http://www.corel.com/coreldraw/odm/2003">
 <defs>
  <style type="text/css">
   <![CDATA[
    .fil1 {fill:#FEFEFE;fill-rule:nonzero}
    .fil0 {fill:url(#id0)}
   ]]>
  </style>
  <linearGradient id="id0" gradientUnits="userSpaceOnUse" x1="4917.96" y1="5109.4" x2="5304.99" y2="11501.52">
   <stop offset="0" style="stop-opacity:1; stop-color:#1B6CB4"/>
   <stop offset="0.290196" style="stop-opacity:1; stop-color:#4E62AA"/>
   <stop offset="0.588235" style="stop-opacity:1; stop-color:#81589F"/>
   <stop offset="1" style="stop-opacity:1; stop-color:#9A4994"/>
  </linearGradient>
 </defs>
 <g id="Ebene_x0020_1">
  <metadata id="CorelCorpID_0Corel-Layer"/>
  <g id="_2267678639376">
   <path class="fil0" d="M5176.74 8594.09c-63.06,-1.36 -225.81,-5.79 -444.36,-19.45l338.22 -84.69 107.85 104.2 -1.72 -0.06zm-2618.85 -330.29l2.01 790.07 1485.6 -372.55c-1043.96,-135.51 -1487.61,-417.52 -1487.61,-417.52zm2.13 854.61l0.83 348.67 623.3 499.62 801.95 -267.13 16.02 -556.04 271.97 0 13.12 455.76 695.29 -231.61 -628.39 -652.49c-44.8,-4.02 -88.53,-8.4 -131.43,-12.95l-1662.65 416.17zm687.72 899.23l708.29 567.69 4.55 -1.3 23.46 -812.47 -736.29 246.08zm1041.48 -348.08l23.34 812.06 1361.31 -396.01 -640.2 -664.79 -744.45 248.74zm25.29 879.67l9.52 331 628.56 503.82 914.01 -290.18 22.52 -784.75 -164.23 -170.56 -1410.37 410.67zm701.26 885.47l54.02 43.32 785.76 0 8.98 -313.58 -848.76 270.26zm875.95 -1215.47l3.78 -130.3 -101 29.37 97.22 100.94zm5.73 -198.68l25.18 -877.01 272.03 0 22.58 783.98 1164.27 -338.74 -626.08 -743.33 -1654.85 552.98 642.87 666.92 154 -44.8zm321.67 -25.89l16.78 581.58 295.55 306.6 1101.82 -349.73 1.54 -643.58 -207.67 -246.61 -1208.01 351.74zm491.34 -1202.57l-148.57 -176.41c-376.69,72.58 -860.29,129.3 -1463.56,136.1 -233.91,-2.66 -449.79,-12.83 -648.53,-28.49l599.66 622.06 1661 -553.26zm-127.94 2143.77l522.6 542.16 525.85 0 2.13 -876.72 -1050.58 334.55zm-343.83 -263.82l8.69 300.99 215.35 -68.38 -224.04 -232.61zm10.64 369.89l12.59 436.09 752.95 0 -501.09 -520.31 -264.46 84.22zm-3688.23 -1494.52l1.54 626.38 550.96 -183.56 -552.5 -442.82zm1.72 699.13l1.83 743.62 1318.06 -383.42 -705.57 -565.57 -614.32 205.37zm1.95 812.18l1.06 419.3 1369.05 0 23.35 -810.76 -13.06 -10.47 -1380.4 401.93zm1761.64 -96.34l14.84 515.64 315.34 0 224.27 -71.22 -554.45 -444.42zm553.39 515.64l89.89 0 -25.53 -20.51 -64.36 20.51zm2755.31 -1690.38l0.48 -205.42 -139.47 40.6 138.99 164.82zm0.65 -272.79l2.37 -964.36 -816.38 272.8 628.69 745.45 185.32 -53.89zm2.55 -1031.79l0.53 -219.25c0,0 -304.95,193.95 -1004.31,337.5l142.25 168.66 861.53 -286.92zm-3109.66 77.13c-82.04,-6.51 -168.73,-14.25 -258.62,-23.41l-772.4 -801.36 591.03 -193.84 928.02 896.22 -488.03 122.39zm-1083.33 -879.03l-353.34 -366.52 -41.96 46.4 329.11 341.75 -956.43 312.7c-137.64,-116.6 -210.21,-256.73 -184.39,-424.98 59.34,-273.03 500.57,-433.24 500.57,-433.24l-39.6 431.29 195.85 3.67c-2.6,-54.55 -9.4,-418.12 169.9,-844.86l157.26 -42.62 811.65 783.93 -588.62 192.48zm-13.88 76.01l740.78 769.15c-601.32,-66.96 -1311.91,-199.16 -1683.46,-460.02l942.67 -309.14zm-330.83 -1089.88c8.51,-18.09 17.26,-36.29 26.48,-54.5l38.29 37 -64.77 17.5zm56.8 -112.46c60.1,-110.98 133.91,-223.69 224.39,-334.14l365.58 -105.9 262.45 307.14 -773.76 208.85 -78.66 -75.94zm900.65 -76.48l669.58 783.57 -625.32 204.42 -809.34 -780.73 765.08 -207.26zm716.33 838.3l831.68 973.34 -515.81 129.36 -933.22 -900.18 617.34 -202.53zm-1310.97 -1189.81c49.05,-53.25 102.36,-105.72 160.15,-156.96l75.89 88.83 -236.04 68.14zm2189.04 2217.52l188.17 220.14c-227.59,19.92 -427.28,28.78 -568.76,30.02l-127.47 -122.98 508.07 -127.17zm-1981.55 -2415.26c115.35,-96.57 247.8,-187.99 399.8,-271.14l198.92 236.15 -504.11 145.56 -94.62 -110.57zm645.7 20.8l267.07 317.12 -506.41 136.69 -263.76 -308.08 503.1 -145.74zm314.34 373.2l640.85 760.94 -478.16 156.31 -668.1 -780.26 505.41 -136.99zm686.72 815.37l851.06 1010.4 -491.57 123.33 -836.71 -977.18 477.22 -156.55zm897.16 1065.06l240.24 285.27c-183.21,29.61 -364.93,52.01 -533.95,68.32l-197.38 -230.6 491.1 -122.98zm-2087.98 -2575.42c89.12,-46.04 184.74,-89.36 287.22,-129.18 0,0 5.85,-224.16 5.85,-224.16 174.69,-67.14 346.19,-109.09 512.97,-128.65l331.42 460.9 -929.08 268.19 -208.38 -247.09zm1178.11 35.52l246.08 342.29 -900.59 243.07 -268.25 -318.12 922.76 -267.24zm286.98 399.09l533.53 742.2 -788.6 257.85 -639.14 -757.75 894.21 -242.3zm573.48 797.7l785.29 1092.36 -712.48 178.65 -855.5 -1014.29 782.68 -256.72zm825.83 1148.8l219.43 305.19c-210.74,68.26 -445.95,121.32 -681.51,161.98l-244.79 -290.23 706.87 -176.94zm-1987.34 -2870.14c389.28,-31.32 751.6,59.05 1068.25,234.74l-744.15 214.82 -324.09 -449.56zm1145.38 279.95c144.84,88.77 279.3,195.79 401.45,317.06l-934.58 252.23 -247.44 -343.18 780.56 -226.11zm453.1 369.95c193.07,204.13 352.7,444.89 470.6,706.17l-883.28 288.81 -532.58 -738.84 945.26 -256.13zm496.43 765.26c137.87,326.62 210.98,682.81 203.53,1038.11l216.24 -3.25 -40.78 -445.72c16.43,4.31 451.98,174.1 507.36,447.13 5.14,35.17 6.03,69.21 2.89,102.13l-968.19 242.83 -790.19 -1096.14 869.15 -285.09zm876.06 1208.78c-65.6,233.2 -340.81,404.64 -697.94,529.1l-216.42 -300.23 914.36 -228.88z"/>
   <path class="fil1" d="M988.7 1741.87c303.26,0 585.81,-136.03 585.81,-596.28 0,-402.8 -209.34,-554.43 -575.42,-554.43l-376.69 0 0 1150.72 366.3 0zm-988.7 2039.96l0 -3755.66 962.44 0c826.47,0 1250.2,345.18 1250.2,1119.42 0,753.17 -434.19,1145.46 -1250.2,1145.46l-340.04 0 0 1490.79 -622.4 0z"/>
   <polygon class="fil1" points="2548.16,26.17 3102.61,26.17 3102.61,3781.83 2548.16,3781.83 "/>
   <path class="fil1" d="M4745.77 2385.22c-298.15,83.75 -465.64,151.7 -585.97,251.1 -109.78,88.96 -151.68,230.12 -151.68,392.29 0,203.99 89.01,334.7 266.83,334.7 172.68,0 350.5,-99.34 470.83,-261.43l0 -716.67zm73.23 1396.63l-31.52 -287.74c-214.4,219.72 -454.98,334.76 -737.46,334.76 -381.75,0 -611.93,-261.49 -611.93,-716.59 0,-308.62 109.78,-543.99 345.1,-716.55 209.34,-162.23 554.57,-277.3 978.17,-402.81 31.38,-355.7 -47.11,-528.26 -324.26,-528.26 -230.19,0 -360.82,135.92 -439.31,376.55l-449.92 -109.85c120.39,-439.38 387.02,-721.8 920.61,-721.8 591.1,0 837,282.42 837,857.85l0 1401.82 41.71 512.61 -528.18 0z"/>
   <path class="fil1" d="M7062.6 3781.83l0 -1825.55c0,-298.16 -89.01,-418.4 -282.56,-418.4 -146.44,0 -287.61,78.43 -454.97,271.95l0 1972.01 -554.45 0 0 -2719.99 538.73 0 0 324.32c224.92,-251.1 434.12,-376.61 711.4,-376.61 230.2,0 397.49,88.88 481.24,245.84 88.94,141.24 109.78,340.05 109.78,638.19l0 1888.25 -549.17 0z"/>
   <path class="fil1" d="M8512.21 2128.93l863.11 0c0,-402.75 -125.58,-674.77 -418.53,-674.77 -271.88,0 -407.94,240.58 -444.58,674.77zm434.27 1699.97c-653.91,0 -972.97,-434.13 -972.97,-1422.75 0,-878.76 340.03,-1396.63 983.28,-1396.63 706.16,0 952.13,559.7 952.13,1255.45 0,78.36 0,167.38 -5.26,266.7l-1396.71 0c20.99,570.18 141.37,836.94 465.64,836.94 251.03,0 387.08,-172.56 465.43,-455.04l465.65 94.13c-146.44,575.37 -465.65,821.21 -957.18,821.21z"/>
   <path class="fil1" d="M11492.91 3766.14c-135.98,26.12 -272.04,41.85 -429.01,41.85 -449.7,0 -617.19,-167.36 -617.19,-685.29l0 -1595.31 -360.82 0 0 -465.57 360.82 0 0 -883.96 549.25 0 0 883.96 496.95 0 0 465.57 -496.95 0 0 1501.16c0,193.63 73.23,272.04 235.38,272.04 83.75,0 172.55,-10.47 261.57,-36.59l0 502.15z"/>
   <path class="fil1" d="M13034.2 2385.22c-298.15,83.75 -465.64,151.7 -585.97,251.1 -109.77,88.96 -151.7,230.12 -151.7,392.29 0,203.99 89.03,334.7 266.83,334.7 172.7,0 350.52,-99.34 470.85,-261.43l0 -716.67zm73.23 1396.63l-31.54 -287.74c-214.38,219.72 -454.96,334.76 -737.43,334.76 -381.76,0 -611.95,-261.49 -611.95,-716.59 0,-308.62 109.8,-543.99 345.11,-716.55 209.34,-162.23 554.57,-277.3 978.18,-402.81 31.37,-355.7 -47.11,-528.26 -324.27,-528.26 -230.19,0 -360.82,135.92 -439.31,376.55l-449.91 -109.85c120.38,-439.38 387.02,-721.8 920.6,-721.8 591.1,0 837,282.42 837,857.85l0 1401.82 41.71 512.61 -528.18 0z"/>
   <path class="fil1" d="M14059.07 3781.83l0 -2719.99 538.71 0 0 449.86c177.82,-324.26 355.64,-502.15 643.38,-502.15 26.12,0 52.24,5.26 88.9,10.39l0 570.24c-41.79,-5.28 -83.61,-10.55 -109.86,-10.55 -266.77,0 -460.24,162.23 -606.68,465.59l0 1736.61 -554.44 0z"/>
   <path class="fil1" d="M15606.58 1061.84l554.46 0 0 2719.99 -554.46 0 0 -2719.99zm-10.44 -1061.84l575.28 0 0 617.27 -575.28 0 0 -617.27z"/>
   <path class="fil1" d="M17926.99 3781.83l0 -324.32c-230.2,251.11 -439.4,371.35 -716.7,371.35 -229.97,0 -386.94,-83.67 -475.95,-240.58 -88.82,-141.23 -115.06,-339.97 -115.06,-638.12l0 -1888.32 564.9 0 0 1825.5c0,298.21 73.3,418.54 277.3,418.54 141.23,0 282.42,-78.49 444.65,-272.04l0 -1972.01 559.7 0 0 2719.99 -538.84 0z"/>
   <path class="fil1" d="M21399.25 3781.83l0 -1846.47c0,-303.36 -109.86,-397.48 -256.31,-397.48 -141.16,0 -282.43,88.87 -418.32,256.3l0 1987.66 -554.57 0 0 -1825.55c0,-287.61 -62.78,-418.4 -245.78,-418.4 -146.5,0 -298.22,109.85 -428.85,277.22l0 1966.74 -554.45 0 0 -2719.99 538.64 0 0 319.06c204.08,-235.32 429.01,-371.35 685.29,-371.35 271.9,0 428.87,136.03 502.1,371.35 219.64,-245.84 428.98,-371.35 700.88,-371.35 434.26,0 580.69,329.5 580.69,836.92l0 1935.36 -549.31 0z"/>
   <polygon class="fil1" points="9526.3,9158.52 9526.3,5402.88 11477.45,5402.88 11477.45,5967.78 10148.71,5967.78 10148.71,6945.96 11137.4,6945.96 11137.4,7489.93 10148.71,7489.93 10148.71,9158.52 "/>
   <path class="fil1" d="M11605.88 9158.52l0 -2719.97 538.7 0 0 449.84c177.82,-324.24 355.78,-502.15 643.39,-502.15 26.12,0 52.23,5.26 88.87,10.39l0 570.24c-41.9,-5.26 -83.61,-10.53 -109.85,-10.53 -266.62,0 -460.23,162.23 -606.67,465.57l0 1736.61 -554.43 0z"/>
   <path class="fil1" d="M13153.23 6438.49l554.43 0 0 2719.99 -554.43 0 0 -2719.99zm-10.46 -1061.76l575.28 0 0 617.27 -575.28 0 0 -617.27z"/>
   <path class="fil1" d="M15400.98 9142.85c-135.98,26.12 -272.04,41.85 -429.01,41.85 -449.7,0 -617.19,-167.38 -617.19,-685.31l0 -1595.29 -360.84 0 0 -465.59 360.84 0 0 -883.96 549.23 0 0 883.96 496.97 0 0 465.59 -496.97 0 0 1501.16c0,193.61 73.23,272.03 235.4,272.03 83.75,0 172.53,-10.46 261.57,-36.58l0 502.15z"/>
   <polygon class="fil1" points="15616.81,9158.52 15616.81,8740.06 16683.86,6904.04 15716.16,6904.04 15716.16,6438.55 17342.9,6438.55 17342.9,6862.21 16275.87,8692.95 17374.36,8692.95 17374.36,9158.52 "/>
   <polygon class="fil1" points="17690.53,5402.9 18244.97,5402.9 18244.97,9158.56 17690.53,9158.56 "/>
   <path class="fil1" d="M19888.61 7761.91c-298.14,83.77 -465.63,151.7 -585.95,251.12 -109.8,88.94 -151.71,230.12 -151.71,392.21 0,204.07 89.02,334.78 266.84,334.78 172.69,0 350.49,-99.34 470.83,-261.43l0 -716.69zm73.22 1396.65l-31.52 -287.77c-214.4,219.73 -454.96,334.79 -737.45,334.79 -381.74,0 -611.93,-261.49 -611.93,-716.61 0,-308.6 109.78,-543.99 345.09,-716.54 209.34,-162.22 554.59,-277.3 978.18,-402.8 31.38,-355.7 -47.11,-528.26 -324.26,-528.26 -230.18,0 -360.83,135.9 -439.32,376.55l-449.91 -109.85c120.4,-439.4 387.02,-721.82 920.63,-721.82 591.07,0 836.99,282.42 836.99,857.85l0 1401.83 41.69 512.62 -528.18 0z"/>
   <path class="fil1" d="M20913.49 9158.52l0 -2719.97 538.71 0 0 449.84c177.82,-324.24 355.78,-502.15 643.39,-502.15 26.11,0 52.23,5.26 88.87,10.39l0 570.24c-41.9,-5.26 -83.61,-10.53 -109.86,-10.53 -266.61,0 -460.22,162.23 -606.66,465.57l0 1736.61 -554.44 0z"/>
  </g>
 </g>
</svg>
